<?xml version="1.0" encoding="UTF-8"?>
<svg id="_レイヤー_1" data-name="レイヤー 1" xmlns="http://www.w3.org/2000/svg" viewBox="0 0 43.59 17.57">
  <defs>
    <style>
      .cls-1 {
        fill: #231815;
        stroke-width: 0px;
      }
    </style>
  </defs>
  <path class="cls-1" d="M4.66,13.7c-.86,0-1.58-.18-2.1-.53-.67-.49-.62-.95-.54-1.18.39-1.02,2.83-1.44,6.38-1.12,2.89.28,5.27-2.88,7.36-5.68,1.9-2.54,3.54-4.73,5.36-4.31.41.16.52.39.54.56.09.7-1.05,1.58-2.93,2.95-.37.27-.75.55-1.11.83l-.28-.37c.37-.28.75-.56,1.12-.83,1.25-.92,2.8-2.06,2.74-2.52-.01-.08-.13-.15-.22-.18-1.49-.35-3.12,1.84-4.85,4.14-1.86,2.49-3.93,5.26-6.48,5.79l.35.2c-.46.82-1.9,1.63-3.58,2.03-.63.15-1.22.22-1.76.22ZM6.23,11.22c-2.47,0-3.62.51-3.78.93-.09.24.15.48.37.64.73.5,2,.59,3.49.24,1.51-.35,2.84-1.07,3.26-1.76-.4.08-.8.1-1.22.05-.8-.07-1.51-.11-2.13-.11Z"/>
  <path class="cls-1" d="M7.86,10.83l-.37-.27c1.52-2.09,1.59-4.06.21-6.39-.17-.28-.54-.39-.85-.25-1.27.6-4.09,1.69-6.67,2.66l-.18-.42C2.81,4.81,4.89,3.2,6.95.75c.58-.69,1.54-.93,2.4-.61,2.03.77,3.85,1.38,5.45,1.92.93.31,1.76.59,2.49.85l-.16.43c-.72-.26-1.55-.54-2.48-.85-1.61-.54-3.43-1.15-5.47-1.93-.67-.25-1.43-.06-1.88.48-1.39,1.65-2.79,2.93-4.41,4.01,1.57-.61,2.98-1.18,3.77-1.55.52-.25,1.15-.06,1.44.43,1.46,2.47,1.39,4.67-.24,6.9Z"/>
  <ellipse class="cls-1" cx="15.78" cy="9.1" rx=".21" ry=".43" transform="translate(-1.73 14.14) rotate(-46.04)"/>
  <ellipse class="cls-1" cx="17.36" cy="8.77" rx=".43" ry=".21" transform="translate(-1.23 14.5) rotate(-43.96)"/>
  <path class="cls-1" d="M14.61,17.57c-.49,0-.96-.08-1.41-.27-2.24-1.14-3.18-3.23-2.65-5.9.64-3.23,3.33-6.34,5.64-6.52.98-.08,2.33.31,3.17,2.59l-.43.16c-.59-1.59-1.52-2.39-2.71-2.29-2.13.17-4.63,3.1-5.23,6.15-.28,1.42-.34,4.01,2.39,5.4,2,.83,5.17-.68,8.67-4.14,1.56-1.54,2.84-3.13,3.71-4.39.11-1.48.46-2.66,1.15-2.86.34-.04.46.14.5.22.21.42-.32,1.51-1.21,2.82-.08,1.33.01,3,.37,4.6.25,1.15,1,3.79,2.56,3.56.18,0,.54-.14,1.19-.94,1.05-1.3,2.22-3.48,3.1-5.39.07-1.58.4-2.94.71-3.61.2-.41.4-.62.64-.6.13,0,.31.08.43.39,0,.01.01.04.02.06.09.38-.49,2-1.34,3.85-.08,2.01.26,4.46,1.69,6.11.44.51,1.16.69,1.81.46,3.51-1.26,4.8-7.98,5.74-12.88l.45.09c-.96,5.01-2.28,11.87-6.04,13.22-.82.3-1.75.06-2.31-.59-1.28-1.48-1.75-3.53-1.81-5.43-.79,1.61-1.71,3.26-2.54,4.35-.68.9-1.24,1.35-1.7,1.37-1.36.2-2.45-1.19-3.05-3.91-.26-1.18-.42-2.67-.4-4.03-.72.98-1.59,2.04-2.48,2.99-1.64,1.75-5.43,5.39-8.64,5.39ZM34.76,6.63c-.12.12-.37.58-.59,1.55-.06.25-.11.53-.15.84.5-1.2.8-2.11.77-2.32-.01-.03-.02-.05-.03-.07ZM27.01,5.91c-.3.1-.55.71-.69,1.61.51-.84.76-1.43.69-1.61Z"/>
  <path class="cls-1" d="M16.83,11.2c-.55,0-1-.65-1-1.19h.34c0,.37.32.84.65.84s.65-.47.65-.84h.34c0,.54-.45,1.19-1,1.19Z"/>
</svg>